<?xml version="1.0" encoding="utf-8"?>
<!-- Generator: Adobe Illustrator 24.1.2, SVG Export Plug-In . SVG Version: 6.00 Build 0)  -->
<svg version="1.1" id="Layer_1" xmlns="http://www.w3.org/2000/svg" xmlns:xlink="http://www.w3.org/1999/xlink" x="0px" y="0px"
	 viewBox="0 0 1280 800" style="enable-background:new 0 0 1280 800;" xml:space="preserve">
<style type="text/css">
	.st0{fill:#006EB6;}
</style>
<path class="st0" d="M273.04,285.7c8.01,8.01,8.01,20.98,0,28.99c-8,8-20.98,8-28.99,0c-8-8.01-8-20.98,0-28.99
	C252.06,277.7,265.03,277.7,273.04,285.7z M431,444.57c8.01,8.01,8.01,20.98,0,28.99c-8,8-20.98,8-28.98,0
	c-8.01-8.01-8.01-20.98-0.01-28.98C410.02,436.57,423,436.57,431,444.57z M303.36,416.35c8.01,8,8.01,20.98,0,28.99
	c-8.01,8-20.98,8-28.99,0c-8-8-8-20.98,0-28.98C282.38,408.35,295.35,408.35,303.36,416.35z M56.91,400c0-138.08,111.93-250,250-250
	c66.18,0,126.35,25.72,171.07,67.7L311.91,383.77c-19.11-9.32-42.82-6.04-58.7,9.84c-20.02,20.01-20.02,52.46,0,72.47
	c20.01,20.01,52.45,20.01,72.47,0c15.76-15.76,19.11-39.24,10.04-58.28l165.34-165.34c34.92,43,55.86,97.82,55.86,157.53
	c0,138.08-111.93,250-250,250c-50.1,0-96.76-14.74-135.87-40.11l54.98-54.98h114.17l50.28-50.29c19.72,12.01,45.8,9.49,62.85-7.56
	c20.01-20.01,20.01-52.46,0-72.47c-20.02-20.01-52.46-20.01-72.47,0c-15.37,15.37-18.94,38.08-10.69,56.86l-42.72,42.72l-114.17,0
	l-67.22,67.22c-6.49-5.45-12.68-11.23-18.58-17.31l68.31-68.31V391.6l42.72-42.72c18.77,8.24,41.48,4.68,56.86-10.69
	c20.01-20.01,20.01-52.46,0-72.47c-20.02-20.02-52.46-20.02-72.47,0c-17.05,17.05-19.58,43.13-7.57,62.86l-50.29,50.29l0,114.17
	l-57.64,57.64C75.71,508.78,56.91,456.58,56.91,400z"/>
<path d="M790.5,469.3c0,34.34-6.5,61.94-19.51,82.83c-12.44,19.47-27.99,29.21-46.65,29.21H577.05v-63.19h147.29
	c9.24,0,17.25-3.9,24.04-11.68c7.72-9.56,11.59-22.47,11.59-38.76c0-16.28-3.96-28.85-11.87-37.7c-6.6-7.43-14.51-11.14-23.75-11.14
	H633.3c-16.77,0-30.82-8.68-42.12-26.02c-12.06-18.76-18.1-43.54-18.1-74.34c0-30.46,6.03-55.06,18.1-73.81
	c11.31-17.34,25.35-26.02,42.12-26.02h145.6v63.18H633.3c-6.41,0-11.87,3.36-16.4,10.1c-4.52,6.73-6.79,15.75-6.79,27.08
	c0,11.68,2.27,20.72,6.79,27.08c4.52,6.37,9.99,9.56,16.4,9.56h91.03c18.66,0,34.21,10.09,46.65,30.27
	C784,407.17,790.5,434.96,790.5,469.3z M996.16,281.84H920.1v299.49h-33.36V281.84H810.4v-63.18h185.75V281.84z M1223.09,581.33
	h-33.64v-150.8h-113.37v-63.19h113.37V218.67h33.64V581.33z M1060.81,581.33h-33.65V218.67h33.65V581.33z"/>
</svg>
